<?xml version="1.0" encoding="utf-8"?>
<!-- Generator: Adobe Illustrator 21.0.0, SVG Export Plug-In . SVG Version: 6.00 Build 0)  -->
<svg version="1.1" id="Layer_1" xmlns="http://www.w3.org/2000/svg" xmlns:xlink="http://www.w3.org/1999/xlink" x="0px" y="0px"
	 viewBox="0 0 24 24" style="enable-background:new 0 0 24 24;" xml:space="preserve">
<style type="text/css">
	.st0{fill:#F5D445;}
	.st1{fill:none;}
</style>
<g id="XMLID_1_">
	<g>
		<path class="st0" d="M7,18h9V4H7V18z M11.5,22c0.8,0,1.5-0.7,1.5-1.5S12.3,19,11.5,19S10,19.7,10,20.5S10.7,22,11.5,22z M18,3.5
			v17c0,1.4-1.1,2.5-2.5,2.5h-8C6.1,23,5,21.9,5,20.5v-17C5,2.1,6.1,1,7.5,1h8C16.9,1,18,2.1,18,3.5z"/>
	</g>
	<g>
	</g>
</g>
<path class="st1" d="M0,0h24v24H0V0z"/>
</svg>
